<svg xmlns="http://www.w3.org/2000/svg" width="1em" height="1em" preserveAspectRatio="xMidYMid meet" viewBox="0 0 256 256"><path fill="white" d="m228.2 59.8l-32-32a5.9 5.9 0 0 0-8.5 0l-96 96A5.9 5.9 0 0 0 90 128v32a6 6 0 0 0 6 6h32a5.6 5.6 0 0 0 4.2-1.8l96-96a5.8 5.8 0 0 0 0-8.4ZM125.5 154H102v-23.5l66-66L191.5 88ZM200 79.5L176.5 56L192 40.5L215.5 64Zm22 40.5v88a14 14 0 0 1-14 14H48a14 14 0 0 1-14-14V48a14 14 0 0 1 14-14h88a6 6 0 0 1 0 12H48a2 2 0 0 0-2 2v160a2 2 0 0 0 2 2h160a2 2 0 0 0 2-2v-88a6 6 0 0 1 12 0Z"/></svg>