<svg width="115" height="130" viewBox="0 0 115 130" fill="none" xmlns="http://www.w3.org/2000/svg">
<path d="M83.58 64.5L65.65 88.95L57.5 77.54L49.35 88.95L31.42 64.5C0.449953 72.65 0.449951 88.95 0.449951 120.735C0.449951 120.735 24.8999 129.7 52.61 129.7H62.39C90.1 128.885 114.55 120.735 114.55 120.735C114.55 88.95 114.55 72.65 83.58 64.5ZM57.5 70.205L44.4599 64.5L57.5 77.54L70.54 64.5L57.5 70.205ZM57.5 0.114998C42.015 0.114998 33.05 14.785 35.495 31.085C37.94 47.385 46.09 58.795 57.5 58.795C68.91 58.795 77.06 47.385 79.505 31.085C81.95 13.97 72.985 0.114998 57.5 0.114998Z" fill="white"/>
</svg>
